<svg xmlns="http://www.w3.org/2000/svg" viewBox="0 0 320 360"><defs><radialGradient id="halo"><stop stop-color="#a8eaa5" stop-opacity=".25"/><stop offset="1" stop-color="#a8eaa5" stop-opacity="0"/></radialGradient><linearGradient id="fur" x2=".8" y2="1"><stop stop-color="#a1c899"/><stop offset="1" stop-color="#554c69"/></linearGradient></defs><circle cx="160" cy="180" r="155" fill="url(#halo)"/><ellipse cx="162" cy="329" rx="84" ry="13" fill="#090d24" opacity=".3"/><path d="M213 285q75-39 59-84-12-27-29-5" fill="none" stroke="#a1c899" stroke-width="24" stroke-linecap="round"/><path d="M111 186q-38 54-20 117l35 14h64l38-24q12-80-30-107" fill="url(#fur)" stroke="#44394f" stroke-width="4"/><path d="M128 195l35 22 35-22 14 108h-98z" fill="#30364b"/><path d="M142 215h38v65h-38z" fill="#a8eaa5" opacity=".7"/><ellipse cx="121" cy="315" rx="29" ry="17" fill="#a1c899"/><ellipse cx="201" cy="315" rx="29" ry="17" fill="#a1c899"/><path d="M91 111L83 42l53 41q30-9 54 1l42-39 1 77q15 29-1 60-20 39-80 35-70-5-67-60z" fill="url(#fur)" stroke="#44394f" stroke-width="4"/><path d="M96 67l6 41 22-20M219 72l-21 20 25 18" fill="#eba6ad"/><ellipse cx="128" cy="140" rx="13" ry="18" fill="#253040"/><ellipse cx="197" cy="140" rx="13" ry="18" fill="#253040"/><circle cx="132" cy="135" r="5" fill="#fff5d9"/><circle cx="201" cy="135" r="5" fill="#fff5d9"/><path d="M153 160h20l-10 9z" fill="#80536b"/><path d="M163 170q-8 13-18 2m18-2q8 13 18 2" stroke="#624b62" stroke-width="3" fill="none" stroke-linecap="round"/><path d="M110 162l-31-4m33 15-32 7m131-18 29-6m-29 18 31 6" stroke="#f6debd" stroke-width="3" stroke-linecap="round"/><ellipse cx="101" cy="245" rx="18" ry="28" fill="#a1c899" transform="rotate(-20 101 245)"/><ellipse cx="221" cy="248" rx="18" ry="28" fill="#a1c899" transform="rotate(20 221 248)"/><path d="M92 81Q165 20 230 87" fill="none" stroke="#588068" stroke-width="12"/><g fill="#8bd68c"><ellipse cx="113" cy="60" rx="13" ry="25" transform="rotate(-40 113 60)"/><ellipse cx="147" cy="47" rx="12" ry="25"/><ellipse cx="184" cy="52" rx="12" ry="25" transform="rotate(30 184 52)"/></g><path d="M244 294V195" stroke="#937052" stroke-width="9"/><path d="M244 213q-35-45 3-56 33 35-3 56" fill="#8be8a4"/><g fill="#a8eaa5"><path d="M57 120l4 8 8 4-8 4-4 8-4-8-8-4 8-4z"/><circle cx="270" cy="125" r="4"/><circle cx="63" cy="257" r="3"/></g></svg>