<svg xmlns="http://www.w3.org/2000/svg" viewBox="0 0 480 560" role="img" aria-label="MuDang original zombie cat mascot"><defs><linearGradient id="fur" x2=".8" y2="1"><stop stop-color="#dcffa1"/><stop offset=".5" stop-color="#a6d16f"/><stop offset="1" stop-color="#416342"/></linearGradient><linearGradient id="body" x2=".7" y2="1"><stop stop-color="#a5c57b"/><stop offset="1" stop-color="#344d38"/></linearGradient><radialGradient id="eye"><stop stop-color="#fffbea"/><stop offset="1" stop-color="#b3d49c"/></radialGradient><filter id="shadow"><feGaussianBlur stdDeviation="10"/></filter></defs><ellipse cx="240" cy="514" rx="132" ry="20" fill="#000" opacity=".4" filter="url(#shadow)"/><path d="M322 414c114 17 124-110 60-97-47 10 18 50-46 64" fill="none" stroke="#8daa64" stroke-width="27" stroke-linecap="round"/><path d="M174 311q-61 92-38 165l52 10 19-39h53l25 40 62-9q10-110-51-167Z" fill="url(#body)" stroke="#293f2e" stroke-width="7"/><ellipse cx="239" cy="393" rx="53" ry="63" fill="#becb90" opacity=".5"/><path d="M164 342q-52 58-31 94m174-94q46 53 27 92" fill="none" stroke="#6a8852" stroke-width="28" stroke-linecap="round"/><path d="m221 374 21-15 20 16-3 30-30 5Z" fill="#db98a3" stroke="#564f46" stroke-width="3"/><path d="m222 377 37 25m-32 2 25-37" stroke="#514e39" stroke-width="3"/><ellipse cx="161" cy="480" rx="46" ry="22" fill="#a3c17c" stroke="#293f2e" stroke-width="5"/><ellipse cx="309" cy="480" rx="47" ry="22" fill="#a3c17c" stroke="#293f2e" stroke-width="5"/><path d="m147 480-3 9m20-9v11m132-11-3 10m21-10 2 10" stroke="#526646" stroke-width="3"/><path d="M110 168 76 50l103 60q60-26 124 0l52-50 3 41 38-16-28 85q33 44 25 96c-8 70-77 105-158 99-84-5-139-38-139-103q-1-56 14-94Z" fill="url(#fur)" stroke="#304735" stroke-width="8" stroke-linejoin="round"/><path d="m105 86 24 82 38-36Z" fill="#c18f98"/><path d="m328 135 23-26-7 50Z" fill="#c18f98"/><path d="M157 166q33-16 55 4M285 166q32-17 55 4" fill="none" stroke="#4c713f" stroke-width="10" stroke-linecap="round"/><ellipse cx="180" cy="218" rx="45" ry="53" fill="url(#eye)"/><ellipse cx="302" cy="215" rx="43" ry="48" fill="url(#eye)"/><ellipse cx="190" cy="226" rx="18" ry="25" fill="#1d2c26"/><circle cx="300" cy="221" r="22" fill="#705169"/><path d="m287 207 25 26m0-26-25 26" stroke="#f1bbb4" stroke-width="7" stroke-linecap="round"/><circle cx="184" cy="215" r="6" fill="#fffde9"/><path d="m224 270 35-1-16 17Z" fill="#de92a5"/><path d="M198 300q43 30 85-5" fill="none" stroke="#304232" stroke-width="8" stroke-linecap="round"/><path d="m259 309 12 17 7-23" fill="#fff2cb"/><path d="m124 242-22 15m25 2-24 14m20 9-18 5M347 246l32 11m-33 7 34 12" stroke="#466644" stroke-width="4" stroke-linecap="round"/><path d="m269 125 32 26m-28-21-6 10m19-1-7 11m20-1-7 11" stroke="#596a44" stroke-width="4"/><g fill="#d7ef9f"><circle cx="134" cy="303" r="5"/><circle cx="146" cy="316" r="3"/><circle cx="338" cy="289" r="5"/></g><path d="M186 353q50 15 97-1" fill="none" stroke="#2c3b30" stroke-width="12"/><circle cx="236" cy="364" r="13" fill="#e0c98d" stroke="#595c3e" stroke-width="3"/><path d="m232 358 8 12m0-12-8 12" stroke="#766b44" stroke-width="2"/></svg>
