<svg xmlns="http://www.w3.org/2000/svg" viewBox="0 0 300 300"><defs><radialGradient id="glow"><stop stop-color="#94daca" stop-opacity=".25"/><stop offset="1" stop-color="#193e39"/></radialGradient><pattern id="grid" width="24" height="24" patternUnits="userSpaceOnUse"><path d="M24 0H0V24" fill="none" stroke="#94daca" stroke-opacity=".07"/></pattern></defs><rect width="300" height="300" fill="#193e39"/><rect width="300" height="300" fill="url(#glow)"/><rect width="300" height="300" fill="url(#grid)"/><circle cx="150" cy="150" r="113" fill="none" stroke="#94daca" stroke-opacity=".2"/><g transform="rotate(22 150 156)"><rect x="115" y="62" width="70" height="32" rx="6" fill="#dfe9c4"/><path d="M122 94v34l-32 39v55q60 25 120 0v-55l-32-39V94" fill="#6eac9b" stroke="#d4ffe0" stroke-width="6"/><path d="M99 178h102v38q-50 22-102 0Z" fill="#c4ef93"/><path d="M140 136h20v14h14v20h-14v14h-20v-14h-14v-20h14Z" fill="#f3f6cd"/></g><circle cx="78" cy="104" r="9" fill="#caf1bc"/><circle cx="232" cy="200" r="7" fill="#caf1bc"/><path d="M20 45V20h25m210 0h25v25M20 255v25h25m210 0h25v-25" stroke="#94daca" stroke-opacity=".5" fill="none" stroke-width="2"/></svg>