<svg xmlns="http://www.w3.org/2000/svg" viewBox="0 0 300 300"><defs><radialGradient id="g"><stop stop-color="#e4c18d" stop-opacity=".28"/><stop offset="1" stop-color="#403328"/></radialGradient></defs><rect width="300" height="300" fill="#403328"/><rect width="300" height="300" fill="url(#g)"/><circle cx="150" cy="150" r="113" fill="none" stroke="#e4c18d" stroke-opacity=".2"/><path d="m32 221 66-51 63 51m-124 0v42h119v-42m20-41 56-42 54 42m-104 0v75h102v-75" fill="#9d704f" stroke="#e6c094" stroke-width="7"/><path d="M75 147q62-100 140-53m0 0-37-1m37 1-11 31" stroke="#ffebbd" stroke-width="11" fill="none" stroke-linecap="round"/><path d="m113 122 11-28 13 18 22-2 18-12 1 31q-24 29-51 17Z" fill="#f2d29b"/><path d="M20 45V20h25m210 0h25v25M20 255v25h25m210 0h25v-25" fill="none" stroke="#e4c18d" stroke-opacity=".5" stroke-width="2"/></svg>