<svg xmlns="http://www.w3.org/2000/svg" viewBox="0 0 300 300"><defs><radialGradient id="glow"><stop stop-color="#c2e878" stop-opacity=".25"/><stop offset="1" stop-color="#304320"/></radialGradient><pattern id="grid" width="24" height="24" patternUnits="userSpaceOnUse"><path d="M24 0H0V24" fill="none" stroke="#c2e878" stroke-opacity=".07"/></pattern></defs><rect width="300" height="300" fill="#304320"/><rect width="300" height="300" fill="url(#glow)"/><rect width="300" height="300" fill="url(#grid)"/><circle cx="150" cy="150" r="113" fill="none" stroke="#c2e878" stroke-opacity=".2"/><circle cx="150" cy="148" r="71" fill="#719f46" stroke="#dcffa7" stroke-width="6"/><g stroke="#cbf49b" stroke-width="8"><path d="M150 49v29m0 140v30M48 149h30m140 0h32M80 80l21 21m97 97 22 22M78 220l22-22m99-99 23-23"/></g><path d="M106 130h29l-14 40ZM165 130h29l-14 40Z" fill="#ffefd2"/><path d="M117 184q33 20 66-2" fill="none" stroke="#244625" stroke-width="9"/><path d="M20 45V20h25m210 0h25v25M20 255v25h25m210 0h25v-25" stroke="#c2e878" stroke-opacity=".5" fill="none" stroke-width="2"/></svg>